# xmcd CD database file
#
# Track frame offsets:
#	150
#	18365
#	40537
#	63185
#
# Disc length: 935 seconds
#
# Revision: 9
# Processed by: cddbd v1.5.2PL0 Copyright (c) Steve Scherf et al.
# Submitted via: CDex 1.70beta3
#
DISCID=2303a504
DTITLE=ANGEL - SWEET
DYEAR=2003
DGENRE=Pop
TTITLE0=Ange passe
TTITLE1=桜の花が咲く頃に
TTITLE2=我愛尓誓
TTITLE3=POETRY ～STORY OF SWEET～
EXTD=YEAR: 2003
EXTT0=
EXTT1=
EXTT2=
EXTT3=
PLAYORDER=
